# xmcd
#
# Track frame offsets:
#	150
#	21228
#	37599
#	55816
#	81187
#	95443
#	115085
#	144977
#	162129
#	178190
#	197061
#	211742
#
# Disc length: 2965 seconds
#
# Revision: 0
# Processed by: cddbd v1.5.1PL2 Copyright (c) Steve Scherf et al.
# Submitted via: dBpowerAMP V4.0
#
DISCID=930b930c
DTITLE=The SideCats - Live at Yankeetown Studios
DYEAR=1900
DGENRE=Blues
TTITLE0=A Drop of Water
TTITLE1=Losin' Faith
TTITLE2=Can You Hear Me
TTITLE3=Who Do You Think You Are
TTITLE4=Mellow Saxaphone
TTITLE5=Before It's Over
TTITLE6=Sandy Short-Haired
TTITLE7=Banana Oil
TTITLE8=Voodoo Remedy
TTITLE9=Things Could Be Worse
TTITLE10=Surely May
TTITLE11=Tailgator Jump
EXTD=
EXTT0=
EXTT1=
EXTT2=
EXTT3=
EXTT4=
EXTT5=
EXTT6=
EXTT7=
EXTT8=
EXTT9=
EXTT10=
EXTT11=
PLAYORDER=
